<?xml version="1.0" standalone="no"?>
<!DOCTYPE svg PUBLIC "-//W3C//DTD SVG 20010904//EN"
 "http://www.w3.org/TR/2001/REC-SVG-20010904/DTD/svg10.dtd">
<svg version="1.0" xmlns="http://www.w3.org/2000/svg"
 width="25pt" height="20pt" viewBox="0 0 980.000000 804.000000"
 preserveAspectRatio="xMidYMid meet">

<g transform="translate(0.000000,804.000000) scale(0.100000,-0.100000)"
fill="#fff" stroke="none">
<path d="M945 8014 c-357 -64 -666 -296 -824 -619 -59 -121 -87 -209 -106
-335 -22 -143 -22 -5937 0 -6080 75 -495 474 -890 969 -959 109 -15 7723 -15
7832 0 503 70 905 475 973 982 8 54 11 1014 11 3020 0 3168 2 3031 -50 3202
-33 107 -102 242 -171 336 -179 243 -436 403 -728 453 -86 15 -442 16 -3960
15 -3303 -1 -3878 -3 -3946 -15z m7565 -699 c34 -18 55 -71 41 -106 -5 -13
-796 -810 -1758 -1771 -1246 -1246 -1759 -1752 -1785 -1763 -53 -21 -143 -19
-192 5 -57 28 -3522 3494 -3532 3533 -8 36 12 84 45 102 40 22 7138 22 7181 0z
m-5730 -2608 c2176 -2175 1967 -1981 2135 -1981 78 0 99 3 155 28 62 28 152
116 1980 1943 l1915 1913 41 0 c31 0 46 -6 65 -26 l24 -26 3 -2706 c2 -1928
-1 -2726 -8 -2771 -15 -88 -52 -161 -115 -229 -61 -66 -125 -104 -210 -127
-53 -13 -478 -15 -3865 -15 -4122 0 -3855 -3 -3962 51 -58 30 -143 113 -178
174 -64 112 -60 -90 -60 2910 0 2170 3 2735 13 2755 17 34 55 52 97 46 30 -5
271 -242 1970 -1939z"/>
</g>
</svg>
