<?xml version="1.0" standalone="no"?>
<!DOCTYPE svg PUBLIC "-//W3C//DTD SVG 20010904//EN"
 "http://www.w3.org/TR/2001/REC-SVG-20010904/DTD/svg10.dtd">
<svg version="1.0" xmlns="http://www.w3.org/2000/svg"
 width="256.000000pt" height="256.000000pt" viewBox="0 0 256.000000 256.000000"
 preserveAspectRatio="xMidYMid meet">

<g transform="translate(0.000000,256.000000) scale(0.100000,-0.100000)"
fill="#000000" stroke="none">
<path d="M460 2227 c-48 -15 -113 -83 -128 -133 -15 -52 -17 -1569 -2 -1624
13 -49 66 -109 114 -131 39 -18 84 -19 834 -19 867 0 831 -2 896 58 16 15 37
45 47 67 18 38 19 82 19 835 0 752 -1 797 -19 836 -22 48 -82 101 -131 114
-51 14 -1584 11 -1630 -3z m1568 -950 l2 -747 -747 2 -748 3 -3 735 c-1 404 0
741 3 748 3 10 158 12 747 10 l743 -3 3 -748z"/>
<path d="M1070 1281 c0 -231 2 -421 4 -421 2 0 121 94 265 209 l262 210 -253
202 c-139 111 -259 206 -265 212 -10 7 -13 -76 -13 -412z"/>
</g>
</svg>
