<?xml version="1.0" standalone="no"?>
<!DOCTYPE svg PUBLIC "-//W3C//DTD SVG 20010904//EN"
 "http://www.w3.org/TR/2001/REC-SVG-20010904/DTD/svg10.dtd">
<svg version="1.0" xmlns="http://www.w3.org/2000/svg"
 width="225.000000pt" height="225.000000pt" viewBox="0 0 225.000000 225.000000"
 preserveAspectRatio="xMidYMid meet">

<g transform="translate(0.000000,225.000000) scale(0.100000,-0.100000)"
fill="#000000" stroke="none">
<path d="M140 2097 c-50 -16 -114 -84 -129 -137 -9 -34 -11 -192 -9 -645 l3
-600 25 -45 c16 -28 43 -55 74 -75 l49 -30 972 0 972 0 49 30 c31 20 58 47 74
75 l25 45 3 600 c2 453 0 611 -9 645 -16 56 -79 121 -135 138 -56 16 -1911 16
-1964 -1z m1945 -152 l25 -24 0 -586 0 -586 -25 -24 -24 -25 -936 0 -936 0
-24 25 -25 24 0 586 0 586 25 24 24 25 936 0 936 0 24 -25z"/>
<path d="M465 1540 c-30 -12 -185 -175 -185 -194 0 -32 28 -71 103 -143 64
-63 80 -73 110 -73 26 0 40 6 51 22 29 41 20 70 -39 128 l-54 54 54 57 c41 43
55 65 55 87 0 46 -52 80 -95 62z"/>
<path d="M1740 1543 c-30 -11 -50 -37 -50 -65 0 -22 14 -44 54 -86 l55 -57
-55 -57 c-57 -60 -66 -87 -38 -126 11 -16 25 -22 51 -22 30 0 46 10 110 73 82
79 108 118 99 151 -7 26 -164 182 -191 189 -11 3 -27 3 -35 0z"/>
<path d="M645 408 c-70 -39 -97 -104 -70 -174 27 -72 98 -108 167 -85 117 39
132 203 24 255 -39 18 -92 20 -121 4z"/>
<path d="M1053 400 c-60 -36 -82 -129 -46 -190 20 -34 81 -70 117 -70 40 0 99
34 119 68 23 40 22 109 -3 149 -37 62 -124 82 -187 43z"/>
<path d="M1483 404 c-107 -53 -91 -217 25 -255 69 -23 140 13 167 85 46 119
-76 227 -192 170z"/>
</g>
</svg>
