<?xml version="1.0" standalone="no"?>
<!DOCTYPE svg PUBLIC "-//W3C//DTD SVG 20010904//EN"
 "http://www.w3.org/TR/2001/REC-SVG-20010904/DTD/svg10.dtd">
<svg version="1.0" xmlns="http://www.w3.org/2000/svg"
 width="292.000000pt" height="235.000000pt" viewBox="0 0 292.000000 235.000000"
 preserveAspectRatio="xMidYMid meet">

<g transform="translate(0.000000,235.000000) scale(0.100000,-0.100000)"
fill="#fff" stroke="none">
<path d="M1664 2326 c-34 -15 -79 -66 -67 -76 4 -4 55 -42 111 -86 l104 -78
19 24 c40 54 37 139 -9 183 -48 46 -101 57 -158 33z"/>
<path d="M1074 1592 c-268 -345 -568 -730 -667 -857 l-179 -229 38 -34 c66
-56 74 -58 74 -19 0 66 32 139 81 189 56 56 94 68 226 71 l98 2 498 640 c274
352 507 652 518 667 l19 26 -110 86 -109 85 -487 -627z"/>
<path d="M1119 1822 c-128 -64 -264 -167 -503 -381 -171 -153 -432 -412 -483
-481 -121 -161 -123 -272 -8 -337 56 -32 105 -30 137 5 13 15 213 270 443 567
230 297 440 568 468 603 27 35 43 62 35 62 -7 0 -48 -17 -89 -38z"/>
<path d="M1341 1404 c-161 -207 -294 -381 -296 -388 -3 -6 17 -21 43 -33 67
-31 129 -87 173 -156 47 -72 76 -154 60 -170 -7 -7 -110 -7 -364 2 -415 14
-439 11 -503 -53 -46 -46 -64 -93 -64 -172 0 -82 55 -143 160 -175 19 -5 211
-19 425 -29 372 -17 393 -19 450 -43 33 -14 101 -34 150 -43 121 -24 393 -24
520 -1 214 40 259 46 425 56 96 6 190 14 208 17 51 8 109 67 127 128 34 121
49 233 49 376 0 271 -66 444 -182 478 -20 6 -102 14 -182 17 -260 12 -303 32
-524 245 -184 176 -352 320 -376 320 -4 0 -138 -169 -299 -376z"/>
<path d="M901 839 l-100 -129 67 -1 c37 -1 142 -4 234 -8 165 -6 168 -6 162
14 -32 101 -131 204 -235 244 -26 9 -31 5 -128 -120z"/>
<path d="M191 438 c-5 -13 -24 -62 -43 -109 l-35 -86 53 -41 c30 -23 57 -42
59 -42 3 0 44 29 92 65 l85 64 -54 53 c-30 29 -76 68 -101 86 l-47 33 -9 -23z"/>
<path d="M52 98 l-41 -100 32 24 c18 14 56 42 85 63 28 22 52 42 52 45 -1 3
-20 19 -44 37 l-43 31 -41 -100z"/>
<path d="M580 195 c0 -19 55 -77 90 -95 71 -36 148 -22 213 38 47 45 38 52
-70 52 -54 0 -128 3 -165 7 -38 3 -68 2 -68 -2z"/>
<path d="M1020 150 c28 -39 91 -69 146 -70 47 0 120 35 142 68 14 22 14 22
-34 22 -27 0 -100 3 -163 7 l-115 6 24 -33z"/>
</g>
</svg>
