<?xml version="1.0" standalone="no"?>
<!DOCTYPE svg PUBLIC "-//W3C//DTD SVG 20010904//EN"
 "http://www.w3.org/TR/2001/REC-SVG-20010904/DTD/svg10.dtd">
<svg version="1.0" xmlns="http://www.w3.org/2000/svg"
 width="580.000000pt" height="386.000000pt" viewBox="0 0 580.000000 386.000000"
 preserveAspectRatio="xMidYMid meet">

<g transform="translate(0.000000,386.000000) scale(0.100000,-0.100000)"
fill="#000000" stroke="none">
<path d="M3104 3086 c-34 -15 -79 -66 -67 -76 4 -4 55 -42 111 -86 l104 -78
19 24 c40 54 37 139 -9 183 -48 46 -101 57 -158 33z"/>
<path d="M2514 2352 c-268 -345 -568 -730 -667 -857 l-179 -229 38 -34 c66
-56 74 -58 74 -19 0 65 32 139 80 188 55 55 100 69 230 72 l95 2 498 640 c274
352 507 652 518 667 l19 26 -110 86 -109 85 -487 -627z"/>
<path d="M2559 2582 c-128 -64 -264 -168 -503 -381 -173 -155 -433 -413 -483
-481 -121 -161 -123 -272 -8 -337 56 -32 105 -30 137 5 14 15 213 270 443 567
230 297 440 568 468 603 27 35 43 62 35 62 -7 0 -48 -17 -89 -38z"/>
<path d="M2781 2164 c-161 -207 -294 -381 -296 -388 -3 -6 19 -22 48 -35 101
-48 223 -205 230 -296 l2 -30 -140 0 c-77 0 -255 2 -395 5 -285 6 -287 5 -348
-64 -56 -64 -71 -185 -29 -247 24 -36 79 -72 137 -90 19 -5 211 -19 425 -29
372 -17 393 -19 450 -43 33 -14 101 -34 150 -43 121 -24 393 -24 520 -1 214
40 259 46 425 56 228 15 234 16 281 58 43 39 57 75 83 218 50 272 13 563 -85
669 -50 55 -81 63 -259 71 -260 12 -303 32 -524 245 -184 176 -352 320 -376
320 -4 0 -138 -169 -299 -376z"/>
<path d="M2345 1604 c-53 -69 -95 -127 -93 -129 2 -2 106 -8 231 -12 224 -8
227 -8 221 12 -32 101 -131 204 -236 244 -25 9 -30 5 -123 -115z"/>
<path d="M1631 1198 c-5 -13 -24 -62 -44 -110 l-35 -86 46 -34 c25 -18 52 -37
59 -41 8 -5 43 15 99 57 l86 65 -54 53 c-30 29 -76 68 -101 86 l-47 33 -9 -23z"/>
<path d="M1492 858 l-41 -100 32 24 c18 14 56 42 85 63 28 22 52 42 52 45 -1
3 -20 19 -44 37 l-43 31 -41 -100z"/>
<path d="M2020 955 c0 -21 57 -79 94 -96 74 -34 145 -21 209 39 47 45 38 52
-70 52 -54 0 -128 3 -165 7 -38 3 -68 2 -68 -2z"/>
<path d="M2460 910 c28 -39 91 -69 146 -70 47 0 120 35 142 68 14 22 14 22
-34 22 -27 0 -100 3 -163 7 l-115 6 24 -33z"/>
</g>
</svg>
